<svg width="91" height="89" viewBox="0 0 91 89" fill="none" xmlns="http://www.w3.org/2000/svg">
<path d="M39.2666 11.125C38.0836 11.6145 37.3101 12.905 37.3101 14.418C37.3101 15.6195 39.1756 17.355 40.4951 17.355C40.9501 17.355 41.8146 16.9545 42.4971 16.4205C45.3636 14.24 42.6791 9.78998 39.2666 11.125Z" fill="#00498D"/>
<path d="M50.1409 17.2215C50.2319 20.737 50.4139 21.5825 50.9599 21.5825C51.5059 21.5825 51.6424 20.826 51.6424 17.355C51.6424 13.6615 51.5514 13.1275 50.8234 12.994C50.0954 12.8605 50.0499 13.2165 50.1409 17.2215Z" fill="#00498D"/>
<path d="M53.326 13.439C53.0075 13.7505 52.78 15.308 52.78 17.3995V20.826L54.3725 20.3365C55.7375 19.936 56.2835 20.025 58.1945 20.8705C59.5595 21.538 60.7425 21.805 61.3795 21.5825C62.244 21.3155 62.335 21.004 62.335 17.622V13.9285L61.0155 14.151C60.333 14.24 59.1045 14.0175 58.331 13.617C56.6475 12.7715 54.0995 12.6825 53.326 13.439Z" fill="black"/>
<path d="M33.9885 20.826C32.578 22.25 31.395 23.585 31.395 23.8075C31.4405 24.742 35.035 28.124 35.8085 27.946C36.9915 27.7235 37.0825 26.433 35.9905 25.0535L35.035 23.8965L36.036 22.784L37.0825 21.716L37.1735 24.119C37.2645 25.4095 37.5375 28.7025 37.765 31.417C38.1745 35.5555 38.1745 37.024 37.583 40.05C36.855 43.61 37.0825 45.39 38.22 45.39C38.493 45.39 38.0835 46.5915 37.31 48.06L35.8995 50.7745L34.216 50.4185C30.394 49.7065 30.394 49.7065 26.3445 55.625C25.844 56.337 24.297 56.96 20.2475 58.028L14.7875 59.452L8.78148 69.8205C5.45998 75.5165 2.72998 80.367 2.72998 80.5895C2.72998 81.0345 87.9515 81.168 88.4065 80.723C88.543 80.5895 88.088 79.2545 87.36 77.786C86.1315 75.2495 85.8585 74.9825 81.5815 72.5795L77.1225 70.0875L74.165 64.2135L71.2075 58.295L68.9325 59.8525C67.2945 61.0095 66.612 61.2765 66.3845 60.876C66.2025 60.5645 64.3825 55.6695 62.335 50.0625C60.242 44.411 58.331 39.605 58.058 39.338C57.785 39.071 55.4645 38.003 52.9165 36.935L48.23 35.066V31.9955V28.925L46.1825 27.679C44.6355 26.789 44.0895 26.1215 43.862 25.0535C43.4525 22.873 43.862 22.339 44.8175 23.8965C45.5455 25.098 46.0005 25.3205 48.0935 25.5875C49.7315 25.7655 50.778 25.721 51.233 25.365C52.689 24.119 51.3695 22.695 48.776 22.695C47.6385 22.695 47.1835 22.339 46.0005 20.47L44.59 18.245H40.586H36.582L33.9885 20.826ZM44.59 32.485C44.59 33.3305 43.9075 35.422 43.134 37.0685L41.6325 40.0945L41.587 34.799L41.5415 29.459L43.0885 30.171C44.3625 30.7495 44.59 31.1055 44.59 32.485ZM52.0065 40.228C54.1905 40.8955 55.965 41.5185 55.965 41.6075C55.965 41.6965 56.784 44.856 57.785 48.594C58.786 52.2875 59.514 55.4025 59.423 55.4915C59.332 55.5805 57.967 53.8005 56.42 51.531C54.8275 49.2615 53.4625 47.3035 53.3715 47.2145C53.2805 47.081 52.5525 47.615 51.779 48.3715L50.323 49.7955L48.6395 48.4605L46.9105 47.1255L44.5445 47.793C43.225 48.1935 42.0875 48.505 41.9965 48.505C41.9055 48.505 42.9975 46.28 44.3625 43.5655C45.9095 40.6285 47.138 38.715 47.4565 38.8485C47.775 38.9375 49.777 39.5605 52.0065 40.228ZM35.4445 53.667C35.672 53.8895 35.763 53.845 32.669 55.3135C31.213 55.981 30.03 56.3815 30.03 56.248C30.03 56.07 30.4395 55.269 30.9855 54.4235C31.85 53.044 32.0775 52.955 33.579 53.222C34.5345 53.4 35.3535 53.578 35.4445 53.667ZM20.293 64.1245C17.3355 66.0825 14.833 67.64 14.742 67.5065C14.6055 67.4175 15.015 66.1715 15.652 64.8365C16.4255 63.0565 17.0625 62.2555 17.836 62.0775C18.4275 61.944 20.111 61.588 21.6125 61.232C23.114 60.876 24.6155 60.5645 24.9795 60.5645C25.3435 60.52 23.205 62.122 20.293 64.1245ZM71.5715 64.169C71.9355 65.237 72.3905 66.483 72.5725 66.9725C72.8 67.5065 72.1175 67.106 70.798 65.86L68.6595 63.8575L69.6605 63.0565C70.2065 62.656 70.707 62.3 70.7525 62.3C70.8435 62.3 71.2075 63.1455 71.5715 64.169Z" fill="#00498D"/>
<path d="M50.2774 26.8335C50.1409 27.145 50.0499 29.1475 50.1409 31.1945C50.2319 34.176 50.4139 34.9325 50.9599 34.9325C51.5059 34.9325 51.6424 34.176 51.6424 30.7495C51.6424 27.768 51.4604 26.4775 51.0964 26.3885C50.7779 26.255 50.4139 26.4775 50.2774 26.8335Z" fill="#00498D"/>
</svg>
